<?xml version="1.0" encoding="utf-8"?>
<!-- Generator: Adobe Illustrator 19.1.0, SVG Export Plug-In . SVG Version: 6.00 Build 0)  -->
<svg version="1.1" id="katman_1" xmlns="http://www.w3.org/2000/svg" xmlns:xlink="http://www.w3.org/1999/xlink" x="0px" y="0px"
	 viewBox="0 0 270 75" style="enable-background:new 0 0 270 75;" xml:space="preserve">
<style type="text/css">
	.st0{opacity:0.49;fill:#DADADA;}
	.st1{fill-rule:evenodd;clip-rule:evenodd;}
	.st2{fill-rule:evenodd;clip-rule:evenodd;fill:#E30B13;}
	.st3{fill:#575756;}
	.st4{fill:#C6C6C6;}
	.st5{fill:none;}
	.st6{fill:#A8182A;}
</style>
<g>
	<g>
		<circle class="st0" cx="220.9" cy="37.4" r="25.7"/>
		<g>
			<polygon class="st1" points="212.8,15.2 218.3,15.2 218.3,21.5 223.5,21.5 223.5,15.2 229,15.2 229,32.4 223.5,32.4 223.5,25.8 
				218.3,25.8 218.3,32.4 212.8,32.4 			"/>
			<polygon class="st1" points="212.8,43.3 212.8,47.5 217.8,47.5 217.8,60.5 223.9,60.5 223.9,47.5 228.9,47.5 228.9,43.3 			"/>
			<polyline class="st2" points="212.7,40 212.7,35.7 228.8,35.7 228.8,40 			"/>
		</g>
		<g>
			<path class="st3" d="M202,57.5c0,0-10.8-9.4-8.1-24.5c2.4-13.6,14.3-22.4,27.1-22.5c16.2-0.2,30,13.4,32.1,25.8
				c2.6,15.3-4.7,26.2-12.1,32c12.3-8.8,22.7-23,8.3-49.6c0,0-8.4-14.6-29.5-14.6C201.7,4.2,179.5,38.9,202,57.5z"/>
			<path class="st3" d="M202,57.5c0,0-12.9-10.3-10.2-25.3c2.4-13.6,16.4-25.3,29.2-25.4c16.2-0.2,37.3,17.9,36.6,30.5
				c-0.7,14.7-9.4,26.3-16.6,31.1c13.6-7.9,25.6-30.6,10.7-52c0,0-9.7-15.4-30.9-15.4c-18,0-28.6,14.5-30.6,23.8
				C187.8,35.5,189.2,47.5,202,57.5z"/>
			<path class="st3" d="M245.2,64.9c4.7-5.2,10.6-14.7,8.2-28.5c-2.1-12.4-15.9-26.1-32.2-26.1c-0.1,0-0.2,0-0.3,0
				c-13.6,0.1-25.1,9.7-27.4,22.8c-1.4,7.9,0.9,14.2,3.1,18.1c0.5,0.9,1.1,1.8,1.6,2.5c-1.3-1.3-2.5-2.7-3.5-4.2
				c-1.8-2.5-3.1-5.3-4-8.2c-0.8-2.6-1.2-5.4-1.2-8.3c0-2.6,0.3-5.3,0.9-8.1c0.5-2.4,1.6-5,3.1-7.6c1.6-2.8,3.8-5.5,6.1-7.7
				c4.1-3.8,11-8.3,21.1-8.3h0c4.8,0,9.3,0.8,13.6,2.4c3.4,1.3,6.6,3,9.5,5.2c5,3.8,7.4,7.6,7.4,7.6l0,0c7.6,11,7.5,21.3,6,28.1
				c-1.1,4.9-3.3,9.8-6.4,14C249.2,61.1,247.3,63.1,245.2,64.9L245.2,64.9z"/>
		</g>
		<g>
			<path class="st4" d="M240.2,18.4c0,0,10,9.3,7.7,23.8c-2.2,13.7-14,22.7-28.3,22.5c-13.9-0.2-26.8-10.7-31-25.1
				c-2.9-9.8,0.9-24.3,11.4-32.4c-13,8.1-25.4,29.9-9.7,51.9c0,0,9.9,14.4,29.1,15c20,0.5,30.1-15.2,32-23.5
				C253.2,43,253.8,28.8,240.2,18.4z"/>
			<path class="st4" d="M240.2,18.4c0,0,10,9.3,7.7,23.8c-2.2,13.7-14,22.7-28.3,22.5c-13.9-0.2-26.8-10.7-31-25.1
				c-2.9-9.8,0.9-24.3,11.4-32.4c-13,9.4-22.6,29.6-6.9,51.6c0,0,7.2,11.3,26.5,11.9c20,0.5,27.6-12,29.6-20.3
				C250.9,42.8,252.9,29.9,240.2,18.4z"/>
			<path class="st5" d="M220.4,73.6c-0.3,0-0.7,0-1,0c-4.3-0.1-8.6-1-12.5-2.5c-3.2-1.3-6.2-3-9-5.1c-4.8-3.6-7.2-7.2-7.3-7.2l0,0
				c-3.3-4.6-5.5-9.4-6.5-14.3c-1-4.4-1-8.9-0.1-13.4c1-4.9,3.1-9.8,6.2-14.1c1.4-2,3.1-3.9,4.8-5.5c-7,8.5-9.1,20.2-6.8,28.2
				c4.3,14.7,17.2,25.1,31.4,25.3c0.2,0,0.4,0,0.5,0c0,0,0,0,0,0c14.4,0,26-9.4,28.1-22.8c1.2-7.6-0.9-13.7-3-17.5
				c-0.6-1.1-1.2-2.1-1.8-3c4,4,6.6,8.6,7.8,13.9c1.4,5.9,0.7,11.3-0.2,14.8c-0.9,3.8-3.7,9.7-8.9,14.6c-2.7,2.6-5.8,4.7-9.2,6.1
				C229.1,72.8,224.8,73.6,220.4,73.6C220.4,73.6,220.4,73.6,220.4,73.6z"/>
		</g>
	</g>
	<path class="st6" d="M1,51.2V15.7h5.6c3.2,0,5.6,0.2,7.1,0.6c2.1,0.6,3.8,1.6,5.1,3.1c1.3,1.5,1.9,3.3,1.9,5.4
		c0,1.4-0.3,2.6-0.9,3.7c-0.6,1.1-1.5,2.1-2.8,3.1c2.2,1,3.7,2.3,4.7,3.8c1,1.5,1.5,3.3,1.5,5.4c0,2-0.5,3.8-1.5,5.5
		c-1,1.6-2.4,2.9-4,3.7c-1.6,0.8-3.9,1.2-6.7,1.2H1z M7.8,22.1v7.5h1.5c1.6,0,2.9-0.3,3.7-1c0.8-0.7,1.2-1.6,1.2-2.8
		c0-1.1-0.4-2-1.1-2.6c-0.8-0.7-1.9-1-3.5-1H7.8z M7.8,35.6v9.1h1.7c2.8,0,4.7-0.4,5.7-1.1c1-0.7,1.5-1.7,1.5-3.1
		c0-1.5-0.6-2.7-1.7-3.6c-1.1-0.9-3-1.3-5.7-1.3H7.8z"/>
	<path class="st6" d="M26,24.9h6.7v12.6c0,2.5,0.2,4.2,0.5,5.1s0.9,1.7,1.6,2.2c0.7,0.5,1.7,0.8,2.8,0.8c1.1,0,2-0.3,2.8-0.8
		c0.8-0.5,1.3-1.3,1.7-2.3c0.3-0.8,0.4-2.4,0.4-4.9V24.9H49V36c0,4.6-0.4,7.7-1.1,9.4c-0.9,2.1-2.2,3.6-3.9,4.7
		c-1.7,1.1-3.9,1.7-6.6,1.7c-2.9,0-5.2-0.6-7-1.9c-1.8-1.3-3-3.1-3.8-5.4C26.2,42.9,26,40,26,35.8V24.9z"/>
	<path class="st6" d="M68.8,28.6l-4.1,4.1c-1.7-1.6-3.2-2.5-4.5-2.5c-0.7,0-1.3,0.2-1.7,0.5c-0.4,0.3-0.6,0.7-0.6,1.2
		c0,0.4,0.1,0.7,0.4,1c0.3,0.3,0.9,0.7,2,1.2l2.4,1.2c2.5,1.3,4.3,2.5,5.2,3.8c0.9,1.3,1.4,2.8,1.4,4.6c0,2.3-0.9,4.3-2.6,5.8
		c-1.7,1.6-4,2.3-6.9,2.3c-3.8,0-6.9-1.5-9.2-4.5l4.1-4.4c0.8,0.9,1.7,1.6,2.7,2.2c1,0.6,2,0.8,2.8,0.8c0.9,0,1.6-0.2,2.1-0.6
		c0.5-0.4,0.8-0.9,0.8-1.4c0-1-1-2-2.9-3l-2.2-1.1c-4.2-2.1-6.4-4.8-6.4-8c0-2.1,0.8-3.8,2.4-5.3c1.6-1.5,3.6-2.2,6.1-2.2
		c1.7,0,3.3,0.4,4.8,1.1C66.4,26.1,67.7,27.2,68.8,28.6z"/>
	<path class="st6" d="M74,14.1c1.2,0,2.1,0.4,3,1.3c0.8,0.8,1.2,1.9,1.2,3c0,1.2-0.4,2.2-1.2,3c-0.8,0.8-1.8,1.2-2.9,1.2
		c-1.2,0-2.2-0.4-3-1.3c-0.8-0.8-1.2-1.9-1.2-3.1c0-1.2,0.4-2.1,1.2-3S72.9,14.1,74,14.1z M70.7,24.9h6.6v26.3h-6.6V24.9z"/>
	<path class="st6" d="M80.3,24.9h6.6v2.7c1.5-1.3,2.8-2.1,4.1-2.6c1.2-0.5,2.5-0.7,3.7-0.7c2.6,0,4.8,0.9,6.6,2.7
		c1.5,1.5,2.3,3.8,2.3,6.9v17.4h-6.5V39.7c0-3.1-0.1-5.2-0.4-6.2c-0.3-1-0.8-1.8-1.5-2.4c-0.7-0.5-1.6-0.8-2.6-0.8
		c-1.3,0-2.5,0.4-3.4,1.3c-1,0.9-1.6,2.1-2,3.7c-0.2,0.8-0.3,2.6-0.3,5.3v10.5h-6.6V24.9z"/>
	<path class="st6" d="M133.3,39.9h-21.2c0.3,1.9,1.1,3.4,2.4,4.5c1.3,1.1,3,1.7,5.1,1.7c2.5,0,4.6-0.9,6.3-2.6l5.6,2.6
		c-1.4,2-3,3.4-5,4.4c-1.9,0.9-4.2,1.4-6.9,1.4c-4.1,0-7.5-1.3-10.1-3.9c-2.6-2.6-3.9-5.9-3.9-9.8c0-4,1.3-7.3,3.9-10
		c2.6-2.6,5.8-4,9.7-4c4.1,0,7.5,1.3,10.1,4c2.6,2.6,3.9,6.1,3.9,10.5L133.3,39.9z M126.8,34.8c-0.4-1.5-1.3-2.7-2.6-3.6
		c-1.3-0.9-2.8-1.4-4.5-1.4c-1.8,0-3.4,0.5-4.8,1.5c-0.9,0.6-1.7,1.8-2.4,3.4H126.8z"/>
	<path class="st6" d="M151.8,28.6l-4.1,4.1c-1.7-1.6-3.2-2.5-4.5-2.5c-0.7,0-1.3,0.2-1.7,0.5c-0.4,0.3-0.6,0.7-0.6,1.2
		c0,0.4,0.1,0.7,0.4,1c0.3,0.3,0.9,0.7,2,1.2l2.4,1.2c2.5,1.3,4.3,2.5,5.2,3.8c0.9,1.3,1.4,2.8,1.4,4.6c0,2.3-0.9,4.3-2.6,5.8
		c-1.7,1.6-4,2.3-6.9,2.3c-3.8,0-6.9-1.5-9.2-4.5l4.1-4.4c0.8,0.9,1.7,1.6,2.7,2.2c1,0.6,2,0.8,2.8,0.8c0.9,0,1.6-0.2,2.1-0.6
		c0.5-0.4,0.8-0.9,0.8-1.4c0-1-1-2-2.9-3l-2.2-1.1c-4.2-2.1-6.4-4.8-6.4-8c0-2.1,0.8-3.8,2.4-5.3c1.6-1.5,3.6-2.2,6.1-2.2
		c1.7,0,3.3,0.4,4.8,1.1C149.5,26.1,150.7,27.2,151.8,28.6z"/>
	<path class="st6" d="M170.6,28.6l-4.1,4.1c-1.7-1.6-3.2-2.5-4.5-2.5c-0.7,0-1.3,0.2-1.7,0.5c-0.4,0.3-0.6,0.7-0.6,1.2
		c0,0.4,0.1,0.7,0.4,1c0.3,0.3,0.9,0.7,2,1.2l2.4,1.2c2.5,1.3,4.3,2.5,5.2,3.8c0.9,1.3,1.4,2.8,1.4,4.6c0,2.3-0.9,4.3-2.6,5.8
		c-1.7,1.6-4,2.3-6.9,2.3c-3.8,0-6.9-1.5-9.2-4.5l4.1-4.4c0.8,0.9,1.7,1.6,2.7,2.2c1,0.6,2,0.8,2.8,0.8c0.9,0,1.6-0.2,2.1-0.6
		c0.5-0.4,0.8-0.9,0.8-1.4c0-1-1-2-2.9-3l-2.2-1.1c-4.2-2.1-6.4-4.8-6.4-8c0-2.1,0.8-3.8,2.4-5.3c1.6-1.5,3.6-2.2,6.1-2.2
		c1.7,0,3.3,0.4,4.8,1.1C168.2,26.1,169.5,27.2,170.6,28.6z"/>
</g>
</svg>

